<svg id="svg" version="1.1" xmlns="http://www.w3.org/2000/svg" xmlns:xlink="http://www.w3.org/1999/xlink" width="400" height="1072.2513089005236" viewBox="0, 0, 400,1072.2513089005236"><g id="svgg"><path id="path0" d="M200.151 10.303 C 155.915 17.323,123.385 47.821,118.221 87.114 C 117.776 90.503,117.411 91.882,116.878 92.179 C 110.863 95.546,109.759 99.761,109.237 121.341 L 108.924 134.302 107.226 139.950 C 106.292 143.057,105.214 147.253,104.831 149.276 C 103.939 153.976,103.370 155.130,101.480 156.074 C 98.098 157.763,98.101 157.754,98.101 166.855 L 98.101 175.023 95.289 178.126 C 79.479 195.579,73.905 226.205,82.860 246.424 C 84.425 249.959,84.532 249.695,80.112 253.200 C 69.052 261.970,56.472 274.770,48.492 285.373 C 47.017 287.332,45.568 289.193,45.272 289.507 C 38.572 296.624,25.038 323.174,19.201 340.653 C 14.604 354.418,11.860 367.057,9.997 383.050 C 7.633 403.336,9.779 431.892,15.135 451.438 C 24.444 485.407,49.967 516.351,85.140 536.309 C 90.357 539.269,92.012 540.101,96.983 542.265 C 109.565 547.740,109.334 547.339,103.295 553.253 C 84.856 571.310,71.949 595.924,67.766 621.006 C 67.398 623.218,66.832 626.637,66.509 628.603 C 65.715 633.438,65.714 654.149,66.507 658.994 C 66.829 660.961,67.302 663.877,67.559 665.475 C 74.511 708.794,113.634 745.619,163.128 755.432 C 173.930 757.574,177.952 758.229,183.051 758.679 C 188.190 759.132,188.132 758.801,184.573 767.374 C 177.968 783.282,172.329 797.730,165.559 816.089 C 160.570 829.620,152.011 857.930,149.682 868.603 C 149.468 869.587,148.976 871.799,148.588 873.520 C 142.421 900.924,142.684 933.850,149.321 965.140 C 153.685 985.712,159.190 1000.802,167.711 1015.546 C 170.263 1019.961,175.613 1028.036,176.511 1028.827 C 176.651 1028.950,177.359 1029.855,178.085 1030.838 C 206.440 1069.244,263.269 1075.045,287.437 1042.001 C 290.559 1037.731,292.737 1033.756,301.142 1016.983 C 308.278 1002.744,311.059 997.966,315.971 991.508 C 320.774 985.195,320.782 985.189,326.034 984.870 C 333.913 984.390,338.676 982.145,340.789 977.915 C 341.546 976.399,341.540 975.594,340.730 970.588 C 340.273 967.764,343.055 965.491,349.560 963.372 C 360.224 959.900,361.704 956.994,358.559 945.698 C 357.442 941.688,354.798 936.939,352.027 933.966 C 350.314 932.129,350.085 932.407,350.128 936.273 C 350.195 942.254,346.595 945.723,339.609 946.412 C 335.838 946.784,335.166 946.199,334.114 941.627 C 330.129 924.294,331.905 903.422,338.483 890.279 C 343.792 879.672,359.102 891.652,362.758 909.274 C 363.821 914.401,364.734 907.077,363.789 901.006 C 362.632 893.584,359.457 885.166,355.781 879.777 C 354.974 878.593,354.866 877.743,354.863 872.536 C 354.857 858.971,351.181 853.974,335.642 846.400 C 320.696 839.115,308.859 837.935,299.573 842.803 C 291.495 847.038,281.693 857.823,276.125 868.602 C 271.509 877.537,270.045 879.031,261.893 883.124 C 246.639 890.782,242.115 895.969,242.009 905.922 C 241.959 910.521,241.926 910.664,240.337 913.118 C 225.264 936.399,228.260 961.778,247.528 974.048 C 251.317 976.460,251.303 976.365,248.638 981.160 C 242.937 991.416,232.560 997.252,227.163 993.236 C 223.668 990.634,215.093 975.438,212.571 967.374 C 211.879 965.162,211.144 962.849,210.938 962.235 C 207.743 952.701,206.136 929.170,207.794 916.201 C 209.170 905.443,209.772 901.578,211.240 894.078 C 213.436 882.860,216.324 871.329,220.084 858.771 C 220.672 856.804,221.604 853.687,222.153 851.844 C 224.845 842.815,230.781 825.388,235.396 812.961 C 238.635 804.242,248.700 778.175,249.634 776.089 C 249.964 775.352,251.262 772.152,252.518 768.978 C 255.944 760.317,255.304 761.055,260.632 759.613 C 333.462 739.898,386.623 687.571,386.665 635.558 C 386.671 628.109,386.595 627.231,385.449 621.453 C 381.487 601.473,367.521 582.456,336.536 554.848 C 319.799 539.935,314.558 535.014,314.874 534.504 C 314.990 534.316,317.146 532.698,319.665 530.909 C 353.463 506.910,377.546 472.221,386.968 433.966 C 401.877 373.430,374.932 302.199,321.952 262.095 C 316.340 257.847,316.641 258.312,318.197 256.275 C 325.227 247.070,328.146 241.045,330.057 231.794 C 331.742 223.638,331.966 202.350,330.453 194.190 C 328.892 185.773,322.223 175.864,313.386 168.832 L 310.513 166.546 310.806 163.161 C 311.181 158.828,310.292 154.353,308.619 152.160 C 307.825 151.118,307.517 150.309,307.724 149.811 C 307.899 149.392,308.007 142.715,307.965 134.972 C 307.888 120.950,307.892 120.881,309.028 117.575 C 310.416 113.535,310.443 112.244,309.211 108.811 C 307.757 104.758,307.523 103.221,307.061 94.679 C 305.293 61.993,289.815 35.982,263.687 21.790 C 262.089 20.923,259.877 19.723,258.771 19.125 C 243.560 10.900,219.348 7.256,200.151 10.303 M229.944 15.419 C 251.793 18.123,269.265 27.202,280.691 41.788 C 289.701 53.289,288.940 67.565,278.892 75.523 C 276.398 77.498,276.452 77.600,282.346 82.032 C 302.376 97.093,309.351 110.754,302.067 120.657 C 301.609 121.279,301.136 122.793,301.015 124.022 C 300.414 130.141,297.425 138.259,294.211 142.496 C 292.706 144.481,293.434 145.289,295.308 143.712 C 298.075 141.384,298.430 141.966,297.430 147.190 C 296.199 153.621,296.587 155.165,299.113 153.890 C 304.350 151.245,306.816 157.135,306.816 172.291 C 306.816 180.575,306.172 182.682,302.528 186.327 C 299.006 189.848,291.883 192.042,291.507 189.721 C 291.137 187.441,290.886 186.873,289.730 185.703 C 285.277 181.197,260.939 178.738,250.950 181.785 L 248.268 182.603 248.133 185.194 C 247.973 188.267,248.679 190.610,251.706 197.043 C 255.066 204.184,255.536 208.566,253.391 212.771 L 252.496 214.525 253.817 214.525 C 259.273 214.525,260.856 222.176,257.007 229.944 C 254.317 235.372,252.726 236.132,251.559 232.542 C 250.676 229.828,249.631 227.549,247.928 224.630 C 246.714 222.549,246.680 222.342,247.207 220.285 C 247.653 218.544,247.646 217.583,247.169 215.320 C 246.845 213.777,246.455 210.503,246.303 208.045 C 245.973 202.685,245.000 200.671,241.033 197.135 C 237.479 193.967,235.833 194.009,239.026 197.185 C 242.277 200.419,243.821 203.703,243.657 207.033 C 243.434 211.568,243.482 213.361,243.882 215.419 C 244.096 216.525,244.125 218.400,243.945 219.586 C 243.637 221.620,243.744 221.959,245.848 225.619 C 251.371 235.229,250.288 239.503,241.877 241.286 C 235.124 242.717,233.534 241.590,232.639 234.739 C 232.246 231.731,231.674 229.514,230.888 227.949 C 229.367 224.922,229.405 224.445,231.173 224.274 L 232.626 224.134 232.527 220.443 C 232.452 217.665,232.136 216.023,231.247 213.801 C 230.139 211.031,230.100 210.693,230.613 208.277 C 231.171 205.646,231.055 204.751,229.797 202.011 C 228.951 200.167,228.891 200.080,226.878 197.767 C 224.698 195.263,224.585 195.915,226.617 199.265 C 228.657 202.630,229.159 205.244,228.384 208.474 C 227.885 210.553,227.916 211.000,228.661 212.555 C 229.924 215.192,229.724 219.515,228.214 222.209 C 226.937 224.488,226.744 226.105,227.567 227.627 C 230.115 232.343,228.660 242.364,225.071 244.824 C 222.279 246.737,214.862 247.148,211.791 245.559 C 211.006 245.153,210.211 243.992,209.382 242.042 C 207.959 238.694,207.575 238.647,207.274 241.783 C 206.902 245.648,205.022 246.717,198.659 246.676 C 191.266 246.629,190.523 245.776,190.117 236.872 C 189.739 228.594,190.433 222.238,192.213 217.654 C 193.701 213.824,193.709 213.728,192.974 209.054 C 192.303 204.791,191.887 204.662,191.528 208.603 C 191.377 210.263,190.663 213.631,189.941 216.089 C 188.387 221.377,187.533 229.281,187.955 234.451 C 188.587 242.198,183.656 246.069,177.220 242.876 C 172.598 240.583,171.743 228.463,175.643 220.504 C 177.180 217.365,177.232 216.830,176.260 214.078 C 174.816 209.990,175.853 205.487,180.165 197.119 C 183.720 190.220,182.702 189.812,178.516 196.459 C 174.264 203.212,173.408 205.873,173.408 212.324 C 173.408 214.995,173.108 219.247,172.741 221.774 C 172.374 224.301,172.022 228.214,171.957 230.469 C 171.697 239.579,163.834 240.581,156.238 232.472 C 153.879 229.954,154.987 224.451,158.909 219.208 C 161.125 216.245,161.074 216.398,160.415 214.666 C 158.834 210.514,159.196 206.158,161.561 200.894 C 162.223 199.419,163.425 196.402,164.231 194.190 C 166.212 188.753,167.715 185.631,169.475 183.295 L 170.950 181.339 169.724 180.417 C 165.625 177.334,160.914 176.676,157.843 178.757 C 155.206 180.544,153.346 180.733,141.400 180.432 C 129.756 180.138,130.385 179.996,127.154 183.669 C 122.425 189.046,119.294 190.301,113.632 189.090 C 107.071 187.686,105.398 185.594,103.462 176.365 C 101.739 168.153,102.125 163.713,104.674 162.431 C 106.453 161.536,107.685 160.093,107.702 158.883 C 107.782 153.155,110.529 151.583,116.136 154.058 C 121.161 156.275,123.869 155.864,121.865 153.187 C 119.869 150.521,118.360 146.667,116.119 138.515 C 113.848 130.254,115.275 102.682,118.202 98.259 C 119.428 96.407,126.382 90.845,130.691 88.272 C 132.185 87.379,133.709 86.459,134.078 86.228 C 134.447 85.996,137.564 84.172,141.006 82.173 C 144.447 80.175,147.814 78.215,148.489 77.817 C 149.814 77.037,150.087 76.425,149.110 76.425 C 148.514 76.425,143.754 78.549,135.642 82.437 C 130.667 84.821,130.950 85.061,130.950 78.459 C 130.950 47.587,159.369 21.402,198.867 15.881 C 201.457 15.519,204.078 15.143,204.693 15.046 C 207.789 14.558,225.045 14.813,229.944 15.419 M293.184 56.786 C 293.184 57.755,292.983 58.547,292.737 58.547 C 292.492 58.547,292.291 57.631,292.291 56.510 C 292.291 55.265,292.464 54.580,292.737 54.749 C 292.983 54.901,293.184 55.817,293.184 56.786 M171.620 79.044 C 171.620 79.256,173.078 80.553,174.860 81.927 C 176.642 83.300,178.604 84.887,179.220 85.452 C 180.694 86.806,185.928 90.984,189.202 93.421 C 192.232 95.676,193.204 95.522,193.438 92.751 C 193.623 90.549,190.700 87.661,185.889 85.295 C 184.063 84.398,180.305 82.537,177.538 81.161 C 172.471 78.642,171.620 78.338,171.620 79.044 M244.693 85.446 C 237.313 87.251,230.721 90.386,226.704 94.000 C 224.883 95.638,225.476 96.304,227.631 95.042 C 228.694 94.419,233.671 92.308,238.692 90.351 C 249.361 86.192,250.279 85.791,250.279 85.291 C 250.279 84.800,246.960 84.891,244.693 85.446 M145.922 103.446 C 142.822 104.214,139.101 105.840,137.007 107.340 C 134.905 108.846,134.842 108.837,139.525 107.707 C 155.478 103.858,168.603 107.319,183.098 119.197 C 185.502 121.166,186.328 120.932,189.024 117.521 C 192.006 113.749,191.926 112.201,188.749 112.186 C 187.896 112.181,186.802 111.733,186.003 111.061 C 185.273 110.447,184.116 109.944,183.433 109.944 C 182.750 109.944,180.532 109.095,178.505 108.057 L 174.819 106.169 173.205 106.939 C 170.844 108.065,169.364 107.898,165.954 106.120 C 159.626 102.820,152.359 101.850,145.922 103.446 M200.931 103.626 C 200.465 104.381,201.255 110.018,201.921 110.684 C 203.387 112.150,203.601 109.281,202.350 104.916 C 201.880 103.278,201.411 102.851,200.931 103.626 M248.570 104.786 C 239.033 107.094,221.037 119.095,219.520 124.159 C 218.582 127.291,219.439 136.684,220.701 137.105 C 223.671 138.095,227.019 142.437,227.901 146.442 C 229.630 154.294,237.102 157.650,248.239 155.577 C 251.576 154.956,258.806 154.957,261.453 155.578 C 271.299 157.889,281.874 153.719,284.972 146.304 C 288.311 138.313,281.025 118.546,273.743 115.840 C 268.335 113.830,253.782 113.910,243.259 116.006 C 238.088 117.037,237.998 116.840,241.504 112.179 C 245.470 106.907,246.173 106.585,253.631 106.628 C 257.833 106.653,260.840 106.905,262.786 107.395 C 265.859 108.170,267.623 107.728,265.212 106.788 C 259.356 104.501,252.936 103.729,248.570 104.786 M147.222 111.054 C 130.208 114.756,125.338 125.961,132.166 145.698 C 134.829 153.397,139.011 155.162,150.391 153.388 C 152.112 153.120,155.531 152.672,157.989 152.393 C 179.421 149.958,184.355 148.518,185.471 144.372 C 186.132 141.918,188.322 138.786,190.531 137.136 C 193.218 135.130,193.607 134.402,193.970 130.695 C 194.352 126.786,195.641 123.884,199.254 118.802 C 200.770 116.668,202.011 114.808,202.011 114.668 C 202.011 113.540,199.874 115.153,195.981 119.218 L 191.381 124.022 187.646 124.010 C 183.169 123.996,182.313 123.609,175.604 118.576 C 166.083 111.433,156.795 108.972,147.222 111.054 M281.410 111.655 C 279.838 113.392,281.045 114.222,282.927 112.698 C 283.501 112.233,283.802 111.652,283.620 111.357 C 283.152 110.600,282.255 110.721,281.410 111.655 M286.338 116.451 C 285.494 117.611,285.467 118.918,286.282 119.189 C 286.841 119.375,288.829 116.017,288.409 115.597 C 287.858 115.046,287.148 115.340,286.338 116.451 M291.453 121.006 C 290.966 121.961,290.252 123.004,289.865 123.325 C 288.917 124.111,288.979 124.693,290.010 124.693 C 291.172 124.693,293.717 121.711,293.545 120.549 C 293.313 118.982,292.382 119.185,291.453 121.006 M205.755 144.446 C 205.557 144.766,204.664 146.536,203.772 148.380 C 202.213 151.601,201.035 153.547,195.505 162.031 C 189.323 171.516,187.109 178.590,189.609 180.875 C 192.797 183.790,198.184 184.267,203.995 182.148 L 207.438 180.892 209.940 182.117 C 212.940 183.586,219.207 183.635,221.387 182.207 C 226.362 178.947,225.265 168.870,218.690 157.418 C 215.603 152.041,213.631 147.534,213.631 145.853 C 213.631 143.097,211.945 143.824,210.960 147.005 C 209.504 151.709,208.217 151.408,207.443 146.182 C 207.144 144.167,206.401 143.402,205.755 144.446 M170.056 155.056 C 166.409 155.948,164.040 157.725,164.029 159.577 C 164.021 160.869,162.206 162.777,159.106 164.750 C 156.623 166.330,158.012 166.827,161.380 165.562 C 162.465 165.155,164.697 164.568,166.341 164.258 C 168.422 163.866,169.847 163.283,171.033 162.339 C 177.210 157.424,176.675 153.438,170.056 155.056 M234.876 162.656 C 234.733 162.888,235.454 163.944,236.479 165.002 C 237.504 166.061,239.168 168.235,240.177 169.832 C 243.114 174.483,250.279 172.957,250.279 167.680 C 250.279 165.534,242.221 161.320,241.086 162.873 C 240.522 163.644,240.388 163.649,238.671 162.962 C 236.623 162.142,235.261 162.033,234.876 162.656 M106.816 174.289 C 106.816 177.507,110.516 183.094,111.892 181.952 C 112.378 181.548,112.800 181.551,113.705 181.963 C 114.486 182.319,115.034 182.351,115.329 182.057 C 116.018 181.367,111.216 176.521,110.125 176.806 C 109.454 176.982,109.080 176.594,108.379 175.000 C 107.344 172.647,106.816 172.407,106.816 174.289 M115.307 178.962 C 115.307 180.079,117.145 181.899,118.273 181.899 C 119.275 181.899,118.973 181.054,117.385 179.419 C 115.608 177.589,115.307 177.523,115.307 178.962 M206.049 191.256 C 205.385 192.496,205.475 195.999,206.186 196.589 C 207.130 197.372,207.374 196.725,207.374 193.445 C 207.374 190.388,206.917 189.633,206.049 191.256 M89.714 196.683 C 91.047 199.296,90.042 202.458,87.879 202.458 C 85.792 202.458,85.261 200.614,86.498 197.655 C 87.585 195.052,88.709 194.713,89.714 196.683 M322.349 202.937 C 324.178 203.770,324.426 204.754,324.563 211.696 C 324.757 221.583,323.549 223.143,318.360 219.710 C 311.202 214.972,314.874 199.531,322.349 202.937 M114.458 207.186 C 114.735 209.458,115.563 211.977,116.891 214.586 C 117.907 216.583,117.811 216.532,119.041 215.726 C 120.422 214.821,120.723 215.154,120.393 217.219 C 120.081 219.168,120.784 219.882,121.963 218.815 C 123.612 217.323,124.314 218.269,123.266 220.570 C 122.492 222.268,123.492 222.744,125.587 221.676 C 127.847 220.523,128.541 221.051,127.631 223.230 C 126.222 226.601,127.163 227.194,130.431 224.993 C 134.185 222.465,134.850 222.834,132.480 226.133 C 129.685 230.023,131.553 231.832,135.555 229.110 C 139.427 226.476,141.902 226.484,139.760 229.124 C 136.918 232.627,136.763 233.296,138.431 234.842 C 139.949 236.250,140.120 236.249,142.184 234.818 C 144.133 233.467,144.978 233.677,144.340 235.352 C 144.104 235.974,143.911 237.142,143.911 237.948 C 143.911 238.754,143.501 240.601,143.001 242.053 C 140.109 250.448,138.836 260.730,139.851 267.486 C 141.171 276.267,140.976 276.512,136.378 271.844 C 131.877 267.272,130.411 264.382,127.142 253.631 C 125.149 247.081,122.721 243.574,118.153 240.652 C 107.538 233.862,104.710 221.894,110.712 209.162 C 113.213 203.856,114.001 203.441,114.458 207.186 M97.176 209.704 C 102.908 213.615,101.885 217.767,94.386 221.027 C 92.098 222.022,89.544 223.380,88.712 224.044 C 86.581 225.744,86.367 225.611,86.020 222.377 C 85.121 213.978,86.228 210.653,90.726 208.250 C 92.993 207.039,93.408 207.132,97.176 209.704 M207.637 210.015 C 205.117 212.646,203.946 219.183,205.302 223.056 C 207.388 229.015,208.375 230.287,209.176 228.045 C 209.418 227.369,209.940 226.240,210.337 225.537 C 211.019 224.330,211.003 224.147,210.052 222.243 C 209.127 220.390,209.063 219.780,209.259 214.679 C 209.496 208.520,209.383 208.193,207.637 210.015 M302.607 216.792 C 305.524 225.303,311.404 231.044,317.221 231.057 C 319.565 231.062,319.839 231.595,319.180 234.877 C 317.836 241.567,314.000 246.608,303.614 255.331 C 298.638 259.511,298.550 259.522,298.538 255.978 C 298.512 248.691,292.860 245.046,284.475 246.912 C 279.287 248.066,276.484 251.411,273.975 259.441 C 272.627 263.756,269.025 270.276,265.959 273.951 C 259.267 281.969,258.462 288.897,263.647 293.827 C 265.411 295.504,265.387 295.839,263.280 298.907 C 258.465 305.922,255.326 308.071,254.534 304.898 C 252.867 298.217,247.474 297.480,239.613 302.858 C 236.005 305.326,235.551 305.302,232.570 302.483 C 229.672 299.742,226.261 299.603,223.721 302.121 C 222.521 303.311,222.654 307.423,224.069 312.849 C 226.147 320.818,225.995 323.868,223.334 327.598 C 220.762 331.203,221.133 334.320,225.090 342.351 C 227.988 348.232,229.761 353.687,229.123 354.753 C 228.947 355.047,227.979 362.766,227.254 369.660 C 227.054 371.564,226.517 372.929,225.029 375.320 C 215.257 391.023,214.080 405.883,221.773 416.418 C 223.495 418.775,225.372 420.112,226.962 420.112 C 228.380 420.112,228.725 420.969,230.139 428.015 C 230.884 431.724,231.894 436.477,232.383 438.578 L 233.274 442.398 232.103 444.956 C 227.842 454.263,234.252 468.354,242.757 468.376 C 245.259 468.382,245.550 468.599,249.567 473.458 C 251.628 475.950,254.527 479.296,256.011 480.894 C 258.552 483.632,258.762 484.030,259.664 487.821 C 260.191 490.034,260.935 493.151,261.319 494.749 C 263.308 503.034,266.813 506.704,282.011 516.414 C 297.889 526.557,300.622 529.235,308.371 542.239 C 313.510 550.862,315.290 552.255,320.607 551.809 L 323.708 551.549 328.670 556.093 C 337.490 564.171,340.900 567.957,342.824 571.809 C 343.366 572.895,344.494 574.553,345.331 575.495 C 348.195 578.719,348.731 580.208,349.716 587.676 C 351.117 598.298,355.392 601.328,359.890 594.886 L 360.652 593.794 361.791 594.864 C 375.021 607.292,380.249 639.148,371.450 653.715 C 370.032 656.063,369.311 656.375,367.844 655.280 C 365.549 653.566,365.290 651.677,366.697 646.913 C 369.686 636.791,366.183 617.363,360.716 613.743 C 356.428 610.904,350.942 613.439,346.936 620.112 C 346.050 621.587,345.260 622.876,345.179 622.977 C 344.613 623.688,340.112 617.063,340.112 615.520 C 340.112 615.034,340.413 613.782,340.782 612.737 C 341.688 610.171,341.626 607.127,340.540 600.827 C 339.761 596.306,339.671 594.484,339.927 588.380 C 340.818 567.081,328.494 556.412,315.815 567.506 C 313.835 569.239,312.633 569.917,310.819 570.323 C 307.312 571.107,305.244 572.439,304.150 574.616 C 303.631 575.650,303.058 576.644,302.877 576.825 C 302.696 577.006,300.937 575.494,298.968 573.463 C 294.930 569.299,295.009 570.211,298.324 566.012 C 300.761 562.925,299.958 551.285,296.573 540.633 C 292.944 529.218,287.964 527.999,278.212 536.141 C 273.501 540.074,272.290 540.778,270.235 540.780 C 267.604 540.783,262.793 538.302,262.793 536.942 C 262.793 536.584,263.346 536.090,264.022 535.846 C 268.246 534.316,269.281 532.466,269.257 526.480 C 269.218 516.483,260.821 510.391,256.475 517.208 C 254.859 519.743,250.098 515.405,248.730 510.151 C 247.989 507.308,248.033 507.139,250.511 503.240 C 253.101 499.166,253.608 497.659,253.593 494.081 C 253.551 484.143,245.731 483.715,236.425 493.141 C 233.834 495.764,233.691 495.740,229.721 492.001 C 222.986 485.659,218.124 483.128,212.673 483.128 C 210.089 483.128,210.069 483.118,209.158 481.333 C 207.742 478.557,204.835 471.774,202.841 466.592 C 201.848 464.011,200.624 460.866,200.121 459.604 C 198.828 456.356,199.227 455.331,203.222 451.623 C 214.287 441.355,215.233 439.532,212.500 433.755 C 208.284 424.842,191.570 422.163,188.963 429.981 C 188.348 431.826,185.630 427.384,184.338 422.422 C 182.886 416.849,183.594 412.925,187.053 407.376 C 191.010 401.026,192.131 394.488,190.219 388.907 C 187.797 381.838,178.524 379.031,171.946 383.375 C 169.922 384.712,169.943 384.729,168.868 380.914 C 166.852 373.757,165.491 361.893,166.161 357.318 L 166.489 355.084 169.613 354.830 C 178.977 354.070,183.898 347.331,181.424 338.654 C 178.581 328.679,178.470 329.345,183.481 326.272 C 188.193 323.383,189.758 322.088,190.726 320.282 C 194.811 312.657,192.457 307.593,183.017 303.697 C 177.066 301.241,175.507 298.786,174.891 290.900 C 174.164 281.580,179.207 279.136,192.402 282.412 C 193.385 282.657,196.000 283.301,198.212 283.844 C 200.425 284.388,203.541 285.304,205.138 285.880 C 206.734 286.456,208.544 286.917,209.160 286.904 L 210.279 286.880 209.217 286.141 C 207.881 285.212,200.877 282.378,195.307 280.513 C 189.701 278.636,189.574 277.818,194.860 277.631 C 201.244 277.406,208.883 279.064,218.101 282.673 C 227.908 286.514,227.331 285.577,215.548 278.522 C 210.822 275.693,210.171 274.582,213.520 275.065 C 220.458 276.065,227.146 277.854,231.322 279.827 C 234.309 281.238,234.884 281.355,235.325 280.642 C 235.803 279.868,234.322 278.602,229.541 275.699 C 227.059 274.192,224.562 272.670,223.992 272.316 C 221.275 270.627,226.309 269.705,230.804 271.068 C 232.014 271.435,234.593 272.539,236.535 273.521 C 240.664 275.610,240.875 275.638,242.169 274.259 C 243.257 273.101,243.096 271.985,241.735 271.257 C 239.771 270.206,240.802 269.590,244.804 269.423 C 250.289 269.194,252.908 267.907,257.637 263.119 C 263.563 257.118,271.822 243.460,274.009 236.043 C 274.754 233.516,275.421 233.325,277.546 235.033 C 279.616 236.697,280.393 236.040,280.161 232.824 C 279.969 230.163,280.839 229.634,282.495 231.405 C 284.903 233.982,285.705 231.595,283.587 228.156 C 281.123 224.156,284.138 222.006,288.570 224.603 C 291.064 226.065,291.508 225.307,290.120 221.959 C 289.263 219.890,288.891 218.101,289.319 218.101 C 290.068 218.101,292.790 219.322,293.937 220.173 C 296.548 222.111,297.029 221.282,295.197 218.004 C 294.583 216.905,293.678 215.642,293.185 215.196 C 292.693 214.751,292.291 214.116,292.291 213.785 C 292.291 212.545,294.088 213.259,296.488 215.453 C 299.139 217.875,299.888 217.954,299.888 215.810 C 299.888 211.741,301.016 212.148,302.607 216.792 M99.275 229.120 C 99.671 229.598,99.908 231.141,99.943 233.478 C 99.973 235.467,100.150 238.518,100.336 240.257 C 100.926 245.758,95.597 247.806,93.912 242.727 C 91.589 235.727,95.831 224.965,99.275 229.120 M112.755 246.309 C 116.525 248.204,117.224 250.029,115.023 252.230 C 113.485 253.767,112.310 253.717,110.256 252.024 C 105.088 247.764,106.991 243.411,112.755 246.309 M289.552 258.814 C 292.148 261.232,291.558 265.543,288.250 268.327 C 284.999 271.062,282.049 267.872,284.460 264.229 C 285.069 263.308,285.700 261.855,285.863 260.998 C 286.484 257.733,287.651 257.042,289.552 258.814 M83.925 262.530 C 89.543 265.401,96.818 271.621,102.804 278.672 C 106.958 283.564,106.984 283.358,101.108 291.959 C 98.433 295.874,98.799 295.718,91.519 296.044 C 84.207 296.372,83.047 297.157,77.723 305.391 C 71.204 315.470,69.816 322.080,72.110 332.121 C 73.836 339.678,73.813 339.930,70.386 351.061 C 68.027 358.723,67.291 361.451,66.647 364.916 C 64.312 377.478,64.043 392.861,65.933 405.750 C 66.764 411.421,66.667 412.395,64.695 418.101 C 62.386 424.779,62.473 437.099,64.886 445.363 C 69.151 459.966,82.186 467.649,89.581 459.920 C 91.309 458.113,91.687 458.170,94.595 460.670 C 103.251 468.115,106.523 473.553,105.195 478.284 C 101.911 489.992,111.832 495.099,129.385 490.738 C 138.490 488.476,141.605 489.563,138.461 493.903 C 135.839 497.522,137.724 501.520,142.570 502.618 C 147.232 503.675,148.277 504.147,148.812 505.439 C 150.068 508.470,152.417 509.219,158.659 508.577 C 162.481 508.183,166.779 508.528,168.137 509.338 C 168.929 509.810,167.762 510.795,165.008 511.979 C 154.410 516.536,141.271 523.713,130.558 530.796 C 124.284 534.944,124.011 534.971,123.584 531.479 C 121.008 510.404,115.415 504.838,101.982 509.987 C 89.395 514.812,88.925 514.535,88.464 502.041 C 88.061 491.106,87.114 489.537,78.542 485.603 C 69.190 481.312,63.844 482.340,57.647 489.622 C 50.832 497.629,49.819 497.491,42.682 487.581 C 41.944 486.557,40.802 484.986,40.143 484.089 C 38.240 481.498,37.564 478.260,37.460 471.247 C 37.344 463.357,37.576 462.838,43.093 458.661 C 52.658 451.420,51.550 443.462,40.223 438.060 C 37.642 436.829,34.365 434.913,32.940 433.803 C 30.738 432.086,26.852 430.391,25.118 430.391 C 23.356 430.391,21.860 427.741,22.077 425.004 C 22.340 421.682,22.439 421.559,24.263 422.299 C 34.160 426.317,43.545 421.278,44.150 411.620 C 44.321 408.901,44.652 407.720,45.907 405.363 C 47.689 402.016,47.721 399.427,46.035 395.021 C 43.834 389.266,41.303 388.021,30.771 387.515 C 20.621 387.027,20.290 386.599,20.715 374.525 C 20.996 366.542,21.632 361.879,23.308 355.531 C 24.831 349.760,25.113 349.462,30.850 347.561 C 37.526 345.349,38.931 345.393,42.858 347.933 C 48.938 351.866,52.924 349.878,58.091 340.335 C 61.867 333.363,61.682 330.562,57.116 325.559 C 51.955 319.904,54.110 314.863,64.228 308.927 C 74.272 303.033,77.033 296.374,70.196 294.533 C 68.241 294.006,68.037 293.622,67.827 290.070 C 67.691 287.755,65.763 286.038,63.286 286.027 C 57.745 286.003,57.991 285.252,66.806 275.307 C 79.648 260.819,80.026 260.537,83.925 262.530 M105.595 264.136 C 107.894 266.160,110.391 269.689,110.391 270.915 C 110.391 272.348,109.101 271.794,107.869 269.832 C 107.214 268.788,105.803 266.906,104.735 265.650 C 101.683 262.061,102.201 261.149,105.595 264.136 M100.398 265.874 C 104.250 269.559,108.082 275.780,106.480 275.747 C 105.829 275.734,105.228 275.049,103.055 271.842 C 101.847 270.060,100.023 267.747,99.002 266.703 C 95.469 263.089,96.715 262.349,100.398 265.874 M277.995 270.854 C 279.159 273.663,277.557 280.341,275.004 283.324 C 270.430 288.668,268.573 283.363,272.668 276.648 C 273.342 275.542,274.244 273.732,274.671 272.626 C 276.036 269.095,277.044 268.558,277.995 270.854 M327.623 280.601 C 329.749 282.323,327.807 283.810,321.351 285.403 C 315.070 286.954,312.990 286.285,314.199 283.104 C 315.242 280.361,325.064 278.529,327.623 280.601 M310.399 287.546 C 311.694 292.643,313.208 293.280,320.555 291.817 C 329.989 289.939,336.952 290.507,340.894 293.477 C 343.583 295.502,342.391 296.030,338.483 294.545 C 336.345 293.732,330.201 292.719,327.609 292.752 C 325.777 292.775,327.641 293.916,330.116 294.287 C 331.234 294.455,334.091 295.391,336.465 296.367 C 338.839 297.343,341.870 298.575,343.199 299.104 C 346.354 300.360,350.315 304.057,352.106 307.418 C 354.490 311.890,354.253 311.964,348.559 308.521 C 342.647 304.947,333.735 301.233,333.189 302.116 C 332.870 302.631,333.949 303.404,336.996 304.845 C 341.404 306.930,349.944 312.764,349.944 313.691 C 349.944 315.212,345.268 314.977,341.688 313.276 C 335.404 310.291,332.066 310.435,337.793 313.444 C 341.830 315.566,342.532 316.389,342.340 318.775 C 342.018 322.780,342.270 324.298,343.800 327.598 C 350.128 341.241,350.031 342.505,342.346 346.369 C 338.366 348.370,336.299 350.251,335.098 352.966 C 332.112 359.715,342.992 383.531,354.789 396.072 C 358.264 399.766,352.658 420.086,344.823 432.198 C 342.689 435.497,342.657 435.521,339.996 435.964 C 339.051 436.121,336.801 437.279,334.856 438.608 C 329.340 442.379,329.699 442.292,327.293 440.454 C 314.575 430.744,305.232 435.446,303.267 452.547 C 302.019 463.407,300.850 465.133,293.610 466.816 C 281.006 469.746,280.077 471.050,280.186 485.651 C 280.244 493.372,280.037 494.227,277.821 495.420 C 275.582 496.626,274.305 494.203,272.405 485.140 C 269.488 471.231,270.208 467.825,278.216 457.632 C 289.206 443.645,296.413 428.488,297.448 417.183 C 297.860 412.686,298.420 411.194,300.542 408.939 C 303.371 405.933,305.129 403.223,306.606 399.593 C 308.366 395.267,308.300 394.434,305.812 389.597 C 303.329 384.770,303.060 382.319,304.648 378.994 C 305.176 377.888,306.811 374.469,308.282 371.397 C 316.011 355.249,313.990 348.831,300.279 345.988 C 292.351 344.344,292.043 343.953,290.524 333.631 C 289.469 326.462,289.066 325.688,284.512 322.079 C 277.730 316.705,290.009 294.842,303.906 287.545 C 309.280 284.724,309.683 284.724,310.399 287.546 M120.974 289.763 C 121.822 291.403,121.985 295.624,121.229 296.380 C 120.606 297.003,120.578 296.931,119.794 292.737 C 119.495 291.140,119.050 289.590,118.805 289.293 C 118.559 288.997,118.483 288.553,118.635 288.307 C 119.085 287.579,120.205 288.276,120.974 289.763 M116.001 293.750 C 117.080 296.141,117.282 297.234,117.423 301.453 C 117.670 308.791,116.180 310.062,115.533 303.066 C 115.107 298.467,114.122 292.969,113.522 291.849 C 112.914 290.713,113.348 289.804,114.172 290.488 C 114.486 290.749,115.310 292.217,116.001 293.750 M110.796 299.696 C 111.322 302.417,111.936 306.252,112.160 308.218 C 112.385 310.185,112.684 312.283,112.825 312.880 C 113.291 314.854,112.492 315.357,110.632 314.259 C 107.467 312.392,106.770 313.140,108.555 316.486 C 113.844 326.398,112.021 332.311,106.123 324.369 C 103.810 321.253,103.074 321.564,103.769 325.363 C 106.000 337.567,105.099 340.472,100.652 335.419 C 97.852 332.238,97.523 332.525,98.504 337.289 C 100.453 346.757,99.372 350.176,95.703 346.145 C 93.987 344.259,93.534 344.205,92.901 345.810 C 92.365 347.171,92.683 359.111,93.342 362.323 C 93.825 364.680,93.080 365.116,90.888 363.761 C 88.440 362.248,88.177 362.650,87.813 368.468 L 87.490 373.648 86.315 373.528 L 85.140 373.408 85.209 377.341 C 85.320 383.701,83.752 381.222,82.225 372.626 C 80.419 362.460,79.834 376.644,81.566 388.603 C 82.273 393.487,82.888 396.638,83.385 397.922 C 83.631 398.557,83.525 398.713,82.927 398.593 C 82.499 398.506,81.893 397.692,81.582 396.782 C 80.996 395.075,78.915 387.327,78.449 385.121 C 77.807 382.079,77.205 384.565,77.510 389.002 C 78.307 400.608,80.813 412.468,84.343 421.341 C 84.465 421.648,84.262 421.899,83.891 421.899 C 83.148 421.899,79.348 416.125,78.010 412.961 C 75.070 406.014,75.599 412.622,78.618 420.559 C 80.701 426.037,79.250 425.342,76.440 419.516 C 63.474 392.634,68.661 359.645,92.300 318.659 C 97.607 309.457,107.123 295.440,108.742 294.440 C 109.575 293.924,109.782 294.454,110.796 299.696 M170.190 296.402 C 170.948 297.160,170.865 302.729,170.049 305.940 C 168.667 311.373,163.320 314.198,162.211 310.080 C 161.629 307.917,162.673 300.892,163.844 299.093 C 164.955 297.386,169.322 295.534,170.190 296.402 M52.630 297.003 C 58.118 300.847,56.893 304.584,49.554 306.382 C 43.937 307.759,43.289 306.989,46.044 302.210 C 49.174 296.782,50.649 295.616,52.630 297.003 M298.393 299.812 C 297.542 300.752,297.446 302.565,298.129 304.807 C 298.390 305.666,298.795 309.413,299.028 313.134 C 299.901 327.062,303.295 333.395,312.178 337.668 C 317.000 339.987,320.158 339.660,321.565 336.695 C 326.185 326.960,323.269 316.970,314.020 310.848 C 312.024 309.527,309.300 307.199,307.968 305.674 C 303.531 300.598,299.767 298.294,298.393 299.812 M247.806 307.724 C 250.622 310.540,249.425 315.226,245.238 317.778 C 241.922 319.800,237.788 315.261,239.311 311.271 C 241.075 306.652,245.067 304.985,247.806 307.724 M90.638 310.700 C 90.894 312.835,83.373 326.871,81.687 327.406 C 76.961 328.906,82.858 313.394,88.268 310.095 C 89.915 309.091,90.463 309.231,90.638 310.700 M312.523 315.906 C 317.581 319.241,318.354 328.943,313.562 328.937 C 309.901 328.932,306.145 323.910,306.145 319.019 C 306.145 315.642,309.580 313.966,312.523 315.906 M44.710 321.006 C 49.105 325.677,47.258 333.662,41.419 335.235 C 35.276 336.889,29.379 332.401,34.358 329.861 C 36.689 328.671,38.647 326.538,39.343 324.428 C 40.446 321.088,43.159 319.357,44.710 321.006 M358.875 325.287 C 362.298 328.709,360.331 336.647,356.386 335.332 C 352.286 333.965,351.948 326.067,355.921 324.463 C 357.360 323.882,357.513 323.924,358.875 325.287 M236.752 327.263 C 237.838 328.650,237.153 334.400,235.544 337.405 C 234.606 339.158,232.105 338.933,231.072 337.002 C 229.152 333.415,234.454 324.325,236.752 327.263 M153.935 328.603 C 154.050 329.156,154.367 331.721,154.639 334.302 C 155.173 339.368,155.393 341.052,157.121 353.296 C 162.090 388.506,171.317 425.124,182.122 452.514 C 188.046 467.532,190.323 472.640,197.172 486.286 C 203.552 498.998,203.399 497.558,198.547 499.182 C 190.090 502.014,189.483 502.133,187.999 501.253 C 179.747 496.363,170.301 491.431,158.436 485.816 C 149.912 481.782,137.184 475.325,131.681 472.243 C 128.764 470.610,126.317 469.274,126.242 469.274 C 125.927 469.274,116.990 463.871,114.580 462.224 C 108.454 458.036,102.369 450.794,99.664 444.470 C 99.138 443.242,98.444 441.633,98.121 440.895 C 89.076 420.197,95.715 372.018,110.232 353.008 C 119.166 341.309,132.461 332.585,147.516 328.544 C 152.118 327.308,153.669 327.323,153.935 328.603 M171.630 329.290 C 176.528 334.188,173.804 343.687,167.503 343.687 C 165.009 343.687,164.328 342.540,164.111 337.970 C 163.695 329.223,167.347 325.007,171.630 329.290 M368.481 334.914 C 370.256 337.942,374.680 348.304,376.478 353.644 C 378.845 360.671,378.593 361.759,375.367 358.436 C 372.363 355.340,371.117 356.266,374.001 359.451 C 379.166 365.156,380.506 368.151,381.644 376.536 C 382.485 382.740,382.149 383.666,380.387 380.000 C 378.371 375.807,375.916 372.291,375.004 372.291 C 374.292 372.291,374.368 372.515,376.317 376.151 C 380.087 383.182,382.811 393.215,382.667 399.535 C 382.570 403.798,382.028 406.079,381.503 404.432 C 380.298 400.649,378.310 395.377,377.854 394.753 C 376.735 393.223,376.633 394.673,377.634 397.873 C 381.656 410.733,382.137 430.274,378.172 419.763 C 377.095 416.905,373.693 411.357,372.104 409.866 C 370.546 408.404,370.645 408.982,372.673 413.186 C 377.596 423.394,378.986 431.373,376.915 437.542 C 375.829 440.775,375.036 440.717,373.863 437.318 C 372.560 433.545,369.468 427.961,368.587 427.791 C 367.971 427.673,368.075 428.198,369.203 430.919 C 372.397 438.619,373.822 448.674,372.155 451.746 C 371.191 453.523,370.682 453.300,370.041 450.819 C 369.571 448.998,368.399 446.057,367.259 443.835 C 366.571 442.495,365.264 441.908,365.799 443.179 C 367.788 447.909,369.289 458.436,368.325 460.894 C 367.607 462.726,366.594 462.430,366.027 460.223 C 365.276 457.301,361.969 449.609,361.463 449.609 C 360.976 449.609,361.050 450.015,362.396 454.749 C 364.218 461.159,364.803 468.964,363.499 469.465 C 362.646 469.792,362.209 469.256,361.525 467.036 C 360.877 464.939,359.885 463.621,359.358 464.158 C 359.101 464.419,359.293 465.520,359.859 467.039 C 362.029 472.864,360.338 479.683,357.553 476.336 C 357.083 475.770,356.062 474.553,355.286 473.631 C 353.156 471.104,351.625 471.515,353.462 474.121 C 356.753 478.788,357.098 480.982,354.943 483.556 L 353.649 485.101 351.163 482.662 C 346.780 478.363,343.440 477.265,346.722 481.203 C 351.256 486.641,351.731 488.337,349.451 490.934 C 347.738 492.885,347.237 492.905,346.157 491.061 C 345.166 489.371,340.708 484.581,339.547 483.959 C 337.961 483.110,337.892 484.114,339.411 485.967 C 340.851 487.724,343.103 491.814,344.155 494.580 C 344.649 495.879,343.192 498.575,341.269 499.922 C 339.917 500.869,339.791 500.783,338.353 497.935 C 336.917 495.091,332.076 490.279,330.650 490.279 C 329.587 490.279,329.613 490.836,330.721 491.839 C 334.703 495.443,337.248 503.513,335.118 505.781 C 333.280 507.738,332.335 507.210,330.357 503.124 C 328.589 499.473,325.654 495.622,323.938 494.704 C 322.448 493.906,322.459 494.657,323.965 496.531 C 326.003 499.068,328.272 503.515,329.181 506.757 L 329.961 509.537 328.696 510.858 C 326.784 512.853,326.157 512.582,324.254 508.939 C 321.270 503.228,315.896 497.087,313.285 496.404 C 312.205 496.122,312.101 497.071,313.120 497.916 C 316.107 500.396,322.112 512.853,321.482 515.263 C 321.259 516.113,319.139 517.542,318.099 517.542 C 317.745 517.542,317.081 516.687,316.624 515.642 C 314.497 510.774,309.936 505.702,305.569 503.352 C 302.043 501.454,301.769 501.994,304.638 505.186 C 308.503 509.483,313.014 517.541,312.763 519.699 C 312.612 521.000,309.322 523.191,308.179 522.752 C 307.839 522.622,306.806 521.164,305.882 519.512 C 303.354 514.991,299.220 510.124,295.222 506.963 C 290.544 503.264,288.693 503.006,292.293 506.554 C 296.597 510.795,304.040 523.799,302.165 523.799 C 301.033 523.799,278.712 500.851,278.999 499.982 C 279.199 499.376,279.068 499.447,287.374 495.465 C 326.895 476.521,359.376 429.622,367.113 380.335 C 368.965 368.533,369.203 349.391,367.610 340.335 C 366.369 333.283,366.335 332.961,366.850 332.961 C 367.118 332.961,367.852 333.840,368.481 334.914 M283.781 337.421 C 285.505 338.343,285.612 347.146,283.993 354.764 C 282.829 360.239,277.105 354.375,277.781 348.400 C 278.945 338.104,280.329 335.573,283.781 337.421 M203.077 339.644 C 192.269 345.843,190.326 361.230,198.304 377.444 C 201.220 383.372,201.959 383.211,205.810 375.809 C 207.285 372.974,209.229 369.364,210.131 367.785 C 213.039 362.695,213.902 357.552,212.933 351.092 C 211.230 339.744,208.477 336.546,203.077 339.644 M249.682 342.554 C 277.188 355.541,293.567 388.118,287.552 417.877 C 284.247 434.226,273.062 451.811,258.466 463.603 C 254.136 467.102,254.053 467.075,251.504 461.330 C 243.786 443.935,239.593 427.496,237.322 405.734 C 236.050 393.541,237.188 367.871,239.538 355.754 C 239.801 354.402,240.224 352.190,240.480 350.838 C 241.132 347.396,242.695 340.898,242.985 340.430 C 243.348 339.843,245.149 340.414,249.682 342.554 M353.353 360.051 C 359.134 362.461,361.866 368.659,359.336 373.620 C 357.577 377.066,355.906 377.269,352.672 374.430 C 350.274 372.324,348.867 370.200,347.318 366.348 C 345.499 361.822,348.954 358.217,353.353 360.051 M203.829 361.596 C 206.955 364.942,205.744 368.396,201.365 368.627 C 196.960 368.859,195.557 366.903,197.377 363.069 C 198.867 359.929,201.673 359.288,203.829 361.596 M300.980 364.792 C 303.126 367.856,299.988 383.017,297.208 383.017 C 296.727 383.017,295.993 382.497,295.576 381.861 C 292.021 376.435,297.349 359.608,300.980 364.792 M324.054 364.978 C 322.579 366.852,321.796 370.275,321.357 376.760 C 320.829 384.576,320.447 386.139,317.786 391.387 C 311.999 402.802,313.630 420.945,320.118 417.318 C 324.750 414.730,329.625 409.178,332.973 402.682 C 334.918 398.908,334.234 393.304,330.029 378.547 C 329.644 377.196,328.950 373.802,328.489 371.006 C 327.395 364.389,326.004 362.498,324.054 364.978 M228.800 386.624 C 229.679 392.041,229.917 408.139,229.134 409.162 C 227.586 411.184,224.388 407.020,224.026 402.511 C 223.625 397.519,225.654 385.018,227.176 383.100 C 227.841 382.263,228.231 383.108,228.800 386.624 M178.329 389.124 C 180.730 390.543,181.389 395.112,179.658 398.343 C 179.162 399.267,178.545 401.008,178.288 402.210 C 177.699 404.956,176.804 405.375,175.627 403.454 C 170.572 395.213,172.382 385.612,178.329 389.124 M325.036 392.348 C 328.464 398.150,324.603 410.155,320.697 405.840 C 317.807 402.646,318.263 395.957,321.597 392.622 C 323.493 390.726,324.052 390.682,325.036 392.348 M24.281 396.891 C 28.216 399.987,23.932 411.945,19.478 410.298 C 15.112 408.683,16.052 400.309,20.971 396.994 C 22.807 395.756,22.837 395.755,24.281 396.891 M80.740 438.101 C 86.514 443.933,87.151 444.798,87.151 446.809 C 87.151 453.949,74.513 442.574,73.424 434.453 C 72.972 431.083,74.595 431.892,80.740 438.101 M195.958 434.211 C 199.505 438.038,199.857 445.211,196.665 448.603 C 193.243 452.241,188.701 441.518,191.450 436.289 C 193.161 433.035,194.357 432.484,195.958 434.211 M26.790 443.339 C 33.114 446.565,35.507 461.559,30.092 464.026 C 26.104 465.844,21.589 451.773,23.711 444.134 C 24.247 442.201,24.455 442.148,26.790 443.339 M321.361 445.154 C 327.837 449.766,325.229 460.782,317.662 460.782 C 313.030 460.782,309.501 453.005,311.722 447.690 C 313.244 444.048,318.037 442.787,321.361 445.154 M240.879 453.017 C 243.617 455.321,244.738 458.985,243.033 460.054 C 241.895 460.767,240.036 459.189,238.502 456.207 C 236.476 452.269,237.830 450.451,240.879 453.017 M221.254 463.054 C 218.038 467.493,219.067 476.276,223.231 479.932 C 231.456 487.153,239.491 479.851,233.537 470.565 C 228.188 462.223,223.800 459.539,221.254 463.054 M113.898 470.823 C 114.550 471.183,117.374 472.596,120.172 473.964 C 126.798 477.201,128.195 478.175,127.227 478.882 C 125.472 480.165,116.700 477.936,113.052 475.280 C 108.686 472.101,109.399 468.339,113.898 470.823 M296.970 472.652 C 298.100 473.700,298.188 474.014,298.017 476.388 C 297.593 482.248,292.100 485.279,289.837 480.903 C 287.168 475.742,293.011 468.984,296.970 472.652 M230.349 473.855 C 232.894 476.129,231.694 479.741,228.485 479.465 C 225.383 479.199,224.350 475.928,226.682 473.755 C 227.941 472.582,228.956 472.610,230.349 473.855 M160.944 496.561 C 170.136 498.814,172.492 500.805,167.798 502.354 C 165.812 503.009,164.739 502.615,159.665 499.365 C 154.167 495.843,154.554 494.995,160.944 496.561 M225.797 496.697 C 230.227 498.677,236.049 504.455,235.661 506.485 C 234.786 511.060,223.861 505.363,221.461 499.080 C 220.087 495.480,221.427 494.743,225.797 496.697 M74.271 497.845 C 77.222 500.167,76.770 505.221,73.253 509.216 C 69.583 513.387,64.372 509.709,64.360 502.939 C 64.353 499.047,71.276 495.489,74.271 497.845 M106.868 516.973 C 109.313 518.418,110.362 521.630,109.419 524.779 C 107.480 531.250,98.332 529.778,98.326 522.995 C 98.321 517.989,103.002 514.690,106.868 516.973 M178.771 521.253 C 181.991 521.853,182.640 522.800,180.335 523.533 C 177.299 524.499,170.374 527.052,168.584 527.865 C 162.710 530.536,162.659 530.534,161.890 527.598 C 161.633 526.615,161.160 525.159,160.839 524.364 C 160.433 523.357,160.398 522.775,160.723 522.450 C 162.205 520.969,173.296 520.233,178.771 521.253 M253.610 525.635 C 257.981 526.849,259.352 530.319,256.451 532.829 C 253.597 535.298,251.308 534.832,247.239 530.951 C 242.646 526.570,246.225 523.585,253.610 525.635 M192.810 530.077 C 196.545 531.231,200.484 533.651,203.017 536.349 C 207.019 540.612,205.638 540.436,195.433 535.385 C 191.943 533.658,191.796 534.381,194.874 538.135 C 197.446 541.272,199.777 545.398,199.777 546.815 C 199.777 547.718,199.172 547.443,191.599 543.099 C 183.341 538.362,182.871 538.695,188.871 545.028 C 192.876 549.256,193.511 550.131,193.412 551.281 C 193.231 553.369,192.357 553.172,184.604 549.299 C 175.071 544.537,175.050 544.545,181.264 550.653 C 183.618 552.967,185.948 555.419,186.443 556.102 L 187.342 557.344 185.567 559.119 C 183.390 561.296,183.250 561.298,179.658 559.205 C 166.427 551.494,164.554 551.624,172.999 559.667 C 180.687 566.990,180.174 568.876,170.726 568.022 C 164.527 567.462,150.181 567.629,150.131 568.262 C 150.093 568.749,158.367 571.630,162.235 572.476 C 170.240 574.227,171.041 575.030,168.014 578.270 L 166.186 580.228 163.428 579.960 C 161.911 579.812,157.130 579.556,152.804 579.390 C 142.308 578.989,142.064 579.414,151.119 582.324 C 154.709 583.479,157.921 586.149,157.689 587.786 C 157.409 589.762,153.109 591.176,143.575 592.427 C 136.397 593.369,135.975 593.966,142.490 593.966 C 154.565 593.966,155.267 600.193,143.473 602.674 C 133.941 604.680,133.345 605.197,139.663 605.979 C 150.164 607.279,147.001 614.827,133.631 620.375 C 128.264 622.602,128.187 623.728,133.498 622.339 C 136.553 621.539,137.933 621.751,139.575 623.274 C 142.477 625.965,138.999 631.203,130.601 636.787 C 129.304 637.650,128.320 638.575,128.415 638.843 C 128.665 639.546,132.228 639.268,134.166 638.395 C 136.523 637.334,137.197 637.719,136.714 639.854 C 136.501 640.795,136.224 642.102,136.097 642.758 C 135.598 645.346,131.940 648.877,124.318 654.129 C 123.649 654.591,123.428 655.004,123.704 655.280 C 124.493 656.069,130.469 653.838,133.740 651.533 C 135.350 650.399,135.689 650.689,136.047 653.510 C 136.212 654.806,136.556 656.520,136.812 657.320 C 137.821 660.474,133.278 670.020,128.252 675.307 C 123.677 680.120,131.595 676.444,136.670 671.399 C 140.651 667.441,140.239 667.427,142.827 671.620 C 144.003 673.525,145.432 675.652,146.002 676.347 C 148.331 679.184,144.620 689.693,139.106 695.878 C 135.903 699.470,136.843 700.064,141.165 697.179 C 144.439 694.992,146.808 692.405,150.037 687.486 C 151.369 685.458,152.536 683.799,152.631 683.799 C 152.925 683.799,158.403 688.359,159.018 689.116 C 160.458 690.887,157.861 700.741,154.496 706.279 C 153.012 708.720,153.113 709.176,154.931 708.234 C 158.226 706.525,162.417 700.937,163.850 696.341 C 164.852 693.127,165.288 693.011,168.807 695.024 C 171.746 696.706,171.896 697.035,171.197 700.262 C 170.217 704.782,168.756 708.278,165.488 713.919 C 164.783 715.135,165.488 715.398,166.927 714.455 C 170.646 712.018,173.610 707.924,175.434 702.705 C 176.829 698.712,176.877 698.684,180.198 699.891 C 183.853 701.219,184.134 701.621,184.134 705.517 C 184.134 709.320,182.773 713.792,180.408 717.763 C 179.313 719.602,179.016 720.445,179.411 720.597 C 180.372 720.966,183.479 719.290,184.680 717.755 C 186.984 714.810,187.626 716.221,186.601 721.975 C 183.630 738.645,161.734 748.848,141.802 742.850 C 137.852 741.661,137.979 740.761,142.245 739.720 C 146.234 738.747,153.523 734.743,153.895 733.321 C 154.174 732.253,153.917 732.290,150.565 733.798 C 140.826 738.179,127.900 737.405,119.729 731.951 C 113.763 727.970,113.846 727.777,121.655 727.477 C 133.819 727.009,139.048 724.134,127.755 724.123 C 118.626 724.114,108.386 722.117,104.838 719.654 C 102.710 718.177,96.536 711.331,96.536 710.449 C 96.536 709.930,97.362 709.859,101.172 710.054 C 105.231 710.261,109.539 709.859,112.761 708.973 C 114.718 708.435,112.469 707.610,108.270 707.327 C 101.220 706.852,91.862 704.190,90.176 702.181 C 88.640 700.349,83.633 690.904,83.290 689.190 C 82.996 687.716,83.018 687.687,84.288 687.940 C 88.581 688.793,94.785 689.304,95.247 688.842 C 96.049 688.040,95.351 687.499,93.078 687.162 C 90.522 686.783,83.542 684.154,81.803 682.916 C 80.345 681.878,79.206 679.660,78.441 676.368 C 77.745 673.372,78.112 673.192,81.875 674.684 C 87.831 677.044,91.602 676.365,86.346 673.878 C 82.489 672.053,76.577 667.474,76.199 666.021 C 75.656 663.926,74.713 655.517,74.952 654.895 C 75.241 654.142,76.075 654.144,77.891 654.902 C 82.302 656.743,84.230 655.952,80.728 653.739 C 79.654 653.060,77.844 651.686,76.706 650.684 L 74.637 648.863 74.637 645.411 C 74.637 640.488,75.189 639.861,77.890 641.720 C 81.728 644.361,82.416 643.468,79.056 640.207 C 76.806 638.022,75.265 635.429,75.750 634.643 C 75.887 634.422,76.213 633.074,76.476 631.646 C 77.142 628.031,77.455 627.756,79.640 628.871 C 82.049 630.100,82.299 629.612,80.306 627.571 C 77.264 624.455,79.170 617.785,82.295 620.613 C 82.768 621.042,83.414 621.215,83.876 621.038 C 84.545 620.781,84.419 620.520,82.999 619.219 C 82.087 618.383,81.341 617.303,81.341 616.818 C 81.341 615.884,86.486 605.541,88.027 603.376 C 88.529 602.672,88.939 601.967,88.939 601.809 C 88.939 601.354,94.148 593.652,97.114 589.721 C 112.282 569.617,137.142 548.686,159.330 537.336 C 175.529 529.050,183.731 527.271,192.810 530.077 M142.781 534.565 C 142.640 535.008,142.957 536.376,143.484 537.603 C 144.643 540.295,144.658 540.266,140.642 542.874 C 137.828 544.701,135.808 546.172,127.196 552.668 C 126.188 553.428,123.509 555.691,121.242 557.696 C 116.234 562.125,116.460 562.115,115.477 557.947 L 114.677 554.553 117.791 551.578 C 130.461 539.475,144.189 530.129,142.781 534.565 M287.456 539.072 C 293.115 540.767,294.374 548.994,289.591 553.019 C 287.791 554.534,286.350 554.491,283.470 552.840 C 275.541 548.292,278.948 536.523,287.456 539.072 M260.474 566.364 C 264.402 570.607,269.070 575.788,270.848 577.877 C 272.626 579.966,274.533 582.200,275.087 582.840 C 289.762 599.828,295.417 612.371,295.415 627.933 C 295.412 647.533,287.997 663.602,272.894 676.742 C 268.981 680.146,269.076 680.383,269.629 668.603 C 271.702 624.427,262.559 587.507,243.699 563.895 C 240.605 560.021,240.644 559.956,246.740 558.854 C 253.020 557.718,251.906 557.109,260.474 566.364 M326.737 572.749 C 332.866 574.911,334.230 582.134,329.428 586.996 C 326.242 590.222,326.195 590.926,328.741 597.347 C 331.990 605.541,333.270 612.737,331.477 612.737 C 329.871 612.737,315.408 596.231,313.944 592.726 C 313.020 590.516,313.112 590.131,314.816 589.078 C 316.678 587.927,316.775 587.697,317.775 582.072 C 319.276 573.631,321.799 571.007,326.737 572.749 M237.080 573.149 C 238.639 573.801,240.273 576.180,239.747 577.031 C 239.587 577.289,238.574 578.315,237.494 579.310 C 234.242 582.307,234.268 582.356,243.962 592.032 C 252.888 600.941,254.767 603.281,256.148 607.209 C 259.067 615.516,257.206 620.036,249.162 624.175 C 245.374 626.125,244.600 626.782,243.698 628.818 C 242.794 630.858,242.676 637.842,243.509 640.000 C 245.217 644.427,247.151 647.700,251.881 654.173 C 260.544 666.029,262.536 671.963,261.453 682.682 C 261.205 685.140,260.887 688.682,260.748 690.553 L 260.494 693.955 257.023 694.193 C 244.315 695.064,237.222 709.421,243.309 721.955 L 244.781 724.988 242.279 726.827 C 229.155 736.477,229.168 745.181,242.341 768.227 C 243.998 771.127,244.171 770.281,239.363 782.793 C 237.474 787.709,235.640 792.536,235.288 793.520 C 231.077 805.271,228.832 810.950,228.397 810.950 C 228.108 810.950,227.266 809.501,226.527 807.731 C 223.414 800.275,219.360 799.569,214.216 805.587 C 209.686 810.887,208.672 813.947,210.416 817.053 C 211.277 818.585,211.555 819.811,211.446 821.593 C 211.412 822.159,210.216 822.947,207.486 824.204 C 197.897 828.617,197.626 829.967,203.907 842.011 C 213.018 859.482,212.922 859.183,211.206 864.775 C 210.520 867.014,209.497 870.903,208.934 873.418 C 205.854 887.171,205.003 888.658,198.264 892.053 C 189.007 896.716,186.869 902.401,189.940 914.190 C 191.965 921.961,192.146 926.139,190.667 930.973 C 187.686 940.713,191.251 948.875,199.209 950.528 L 200.891 950.877 201.640 954.657 C 202.052 956.735,203.021 960.920,203.794 963.956 L 205.198 969.477 204.076 971.107 C 199.278 978.083,202.341 984.880,211.896 988.457 C 216.539 990.195,220.572 993.046,219.634 993.927 C 219.405 994.142,217.106 994.556,214.525 994.846 C 211.944 995.136,209.659 995.542,209.447 995.748 C 208.621 996.551,209.711 996.962,212.821 997.020 C 216.915 997.095,223.107 997.922,223.665 998.468 C 225.868 1000.621,211.949 1001.751,202.541 1000.183 C 191.141 998.282,190.629 997.755,186.537 983.729 C 182.740 970.712,180.475 968.386,170.950 967.725 C 166.364 967.407,164.613 965.841,162.082 959.794 C 159.936 954.668,159.597 952.650,160.774 952.019 C 165.155 949.675,166.103 942.387,163.197 933.408 C 162.148 930.169,161.942 930.538,166.416 927.652 C 176.667 921.039,176.893 912.424,167.194 897.964 C 157.494 883.503,156.339 880.397,158.019 873.296 C 158.397 871.698,159.098 868.367,159.576 865.894 C 161.498 855.967,164.273 853.264,175.419 850.458 C 189.204 846.988,193.790 841.118,188.829 833.296 C 182.299 823.000,182.342 820.247,189.076 817.607 C 196.386 814.741,200.589 809.221,199.344 804.119 C 198.602 801.075,198.187 800.472,193.593 795.758 C 186.760 788.747,186.016 785.667,189.060 776.983 C 192.924 765.961,194.900 763.749,205.751 758.308 C 214.739 753.800,217.049 751.330,219.216 743.911 C 221.011 737.765,220.222 734.237,215.894 729.057 C 212.554 725.060,212.551 725.065,220.663 720.921 C 236.233 712.966,237.277 697.150,223.205 682.409 C 215.927 674.785,216.269 671.202,225.438 659.025 C 232.460 649.699,234.620 644.452,235.476 634.641 C 236.149 626.931,235.055 625.808,227.384 626.334 C 217.320 627.023,215.231 624.044,216.284 610.503 C 216.997 601.335,217.444 599.380,220.046 594.033 C 221.695 590.644,221.206 589.652,218.282 590.460 C 211.331 592.379,213.485 583.839,221.353 578.287 C 228.605 573.168,233.387 571.606,237.080 573.149 M101.204 574.401 C 102.299 575.965,102.057 576.752,99.627 579.527 C 94.439 585.452,82.682 602.300,82.682 603.808 C 82.682 604.049,82.480 604.246,82.235 604.246 C 81.690 604.246,81.662 603.602,82.161 602.564 C 93.429 579.159,98.885 571.091,101.204 574.401 M185.254 582.353 C 185.935 584.501,183.681 588.568,181.796 588.589 C 179.734 588.613,179.737 584.598,181.802 582.235 C 182.763 581.134,184.890 581.208,185.254 582.353 M189.677 586.193 C 190.373 588.007,188.014 592.626,186.391 592.626 C 184.356 592.626,184.287 588.580,186.282 586.257 C 187.131 585.269,189.307 585.228,189.677 586.193 M177.237 592.324 C 189.201 606.472,196.977 621.404,201.832 639.553 C 205.873 654.658,207.381 674.600,205.632 689.783 L 205.020 695.096 198.934 694.786 C 180.866 693.865,166.482 688.063,155.702 677.349 C 134.081 655.860,139.858 617.235,168.286 593.212 C 174.132 588.272,173.835 588.301,177.237 592.324 M192.638 593.096 C 193.415 594.548,193.100 596.139,191.724 597.706 C 190.186 599.458,188.765 599.459,188.326 597.709 C 187.398 594.012,191.042 590.114,192.638 593.096 M230.745 595.088 C 227.238 597.544,227.203 607.075,230.673 614.972 C 235.567 626.113,247.647 619.894,243.793 608.217 C 240.403 597.944,234.765 592.272,230.745 595.088 M196.393 598.691 C 198.196 600.494,196.332 605.112,193.792 605.133 C 192.057 605.147,191.185 602.565,192.236 600.529 C 193.539 598.007,195.044 597.342,196.393 598.691 M239.426 605.387 C 241.653 607.878,241.865 612.864,239.830 614.898 C 238.337 616.391,236.925 615.792,235.079 612.881 C 231.611 607.413,235.399 600.883,239.426 605.387 M200.577 608.074 C 203.412 610.060,204.184 615.215,201.899 616.914 C 198.541 619.412,195.003 611.670,198.030 608.448 C 199.222 607.179,199.285 607.170,200.577 608.074 M357.489 619.490 C 360.720 620.616,362.086 630.406,359.634 634.860 C 359.362 635.354,359.134 637.990,359.124 640.749 C 359.098 647.998,356.875 650.279,351.095 648.985 C 345.647 647.766,344.258 644.591,347.263 640.223 C 349.062 637.608,349.317 635.874,348.589 631.195 C 347.902 626.774,348.062 626.330,350.816 625.005 C 352.820 624.041,353.924 622.588,353.951 620.879 C 353.960 620.249,354.350 619.705,354.972 619.455 C 355.525 619.233,355.998 619.038,356.023 619.023 C 356.047 619.007,356.707 619.217,357.489 619.490 M308.605 623.128 C 309.750 624.419,311.601 627.029,312.717 628.930 C 316.306 635.037,317.000 634.570,314.389 627.804 C 313.515 625.540,312.610 623.496,312.378 623.263 C 311.844 622.726,311.824 621.229,312.351 621.229 C 314.486 621.229,333.209 648.627,331.708 649.555 C 331.187 649.877,329.109 648.739,326.873 646.907 C 325.056 645.418,324.022 644.984,324.022 645.711 C 324.022 646.495,325.778 648.553,330.970 653.855 C 336.837 659.845,337.624 661.256,338.516 667.374 C 338.969 670.479,336.897 669.865,330.282 664.937 C 324.323 660.497,327.136 665.060,334.848 672.345 L 340.114 677.318 340.395 680.069 C 340.728 683.314,340.367 685.140,339.393 685.140 C 338.537 685.140,331.373 677.982,330.976 676.731 C 330.703 675.871,329.472 675.072,329.057 675.486 C 328.398 676.146,333.394 683.934,337.175 688.138 C 338.326 689.419,339.294 690.927,339.325 691.490 C 339.612 696.671,338.662 696.843,334.186 692.420 C 332.248 690.505,330.165 688.102,329.558 687.080 C 328.343 685.034,327.151 684.246,327.151 685.489 C 327.152 687.574,331.028 694.195,334.888 698.707 C 337.061 701.247,337.112 701.370,336.587 702.822 C 335.651 705.410,332.820 710.168,332.216 710.168 C 331.223 710.168,325.648 704.570,323.118 701.032 C 320.795 697.784,320.000 697.056,320.000 698.177 C 320.000 699.383,322.878 704.407,325.693 708.115 C 327.355 710.304,328.998 712.476,329.343 712.941 C 330.041 713.882,327.284 717.318,325.830 717.318 C 325.139 717.318,321.995 712.503,319.787 708.062 C 316.223 700.892,317.455 708.773,321.155 716.810 C 322.827 720.443,322.797 720.642,320.274 722.644 C 317.441 724.892,317.189 724.711,315.345 719.106 C 313.149 712.433,312.732 711.446,312.297 711.882 C 312.042 712.137,312.146 713.995,312.566 716.707 C 314.090 726.527,314.065 726.740,311.183 728.608 C 307.849 730.768,307.722 730.591,307.258 723.128 C 307.097 720.547,306.868 718.084,306.749 717.654 C 306.324 716.121,305.698 716.906,305.679 718.994 C 305.591 728.689,304.370 732.256,300.517 734.079 C 296.349 736.050,296.384 736.102,297.709 729.877 C 298.287 727.166,298.534 724.927,298.341 724.162 L 298.024 722.905 297.418 724.057 C 297.084 724.691,296.370 726.501,295.830 728.080 C 293.738 734.190,291.518 737.765,288.999 739.075 C 287.214 740.003,286.623 739.331,287.269 737.109 C 287.872 735.039,288.872 726.712,288.556 726.396 C 288.069 725.909,287.452 726.782,286.735 728.973 C 285.386 733.098,281.209 741.372,280.113 742.090 C 275.645 745.017,273.792 740.844,276.386 733.694 C 278.409 728.117,278.299 724.524,276.247 729.162 C 271.379 740.167,275.352 707.761,280.529 694.236 C 282.931 687.962,283.545 688.424,283.140 696.201 C 282.815 702.458,283.164 703.501,284.150 699.218 C 285.063 695.254,285.584 691.686,285.966 686.802 C 286.301 682.507,286.487 681.787,287.811 679.672 C 288.621 678.377,289.679 676.615,290.162 675.754 C 293.224 670.302,293.757 672.085,292.523 683.639 C 292.159 687.046,291.563 691.238,291.199 692.956 C 290.599 695.787,290.808 697.497,291.652 696.654 C 292.511 695.794,294.941 683.563,295.449 677.542 C 296.629 663.545,296.548 664.058,298.079 660.890 C 298.882 659.229,299.695 657.773,299.886 657.655 C 301.477 656.672,303.812 670.187,303.332 677.599 C 303.082 681.449,303.942 683.551,304.542 680.559 C 305.560 675.479,305.808 672.772,305.819 666.592 C 305.831 659.527,305.327 654.825,304.096 650.533 C 303.157 647.260,303.755 642.067,305.274 640.298 C 306.746 638.584,312.685 651.893,313.175 658.006 C 313.561 662.811,314.445 661.581,314.264 656.491 C 314.024 649.734,312.183 642.889,308.266 634.192 C 306.112 629.407,305.939 628.763,305.782 624.916 C 305.582 620.045,305.766 619.929,308.605 623.128 M212.581 628.443 C 217.037 632.629,216.949 645.363,212.464 645.363 C 208.481 645.363,207.119 643.872,205.347 637.568 L 204.099 633.125 204.954 630.641 C 206.329 626.650,209.653 625.692,212.581 628.443 M257.155 627.525 C 260.827 630.414,260.874 637.474,257.243 640.866 C 252.998 644.832,248.394 632.645,252.357 627.935 C 253.716 626.320,255.436 626.173,257.155 627.525 M237.101 653.056 C 233.518 655.133,230.429 663.030,230.408 670.168 C 230.394 674.834,231.106 676.691,234.715 681.400 C 235.906 682.954,237.512 685.546,238.283 687.160 C 241.081 693.018,243.531 693.187,245.567 687.663 C 246.006 686.470,247.249 684.062,248.328 682.312 C 252.116 676.169,252.647 673.648,251.131 669.027 C 247.870 659.096,240.721 650.957,237.101 653.056 M243.491 668.168 C 247.228 670.446,247.223 680.479,243.484 683.098 C 242.551 683.751,242.409 683.710,241.038 682.381 C 235.055 676.582,237.172 664.315,243.491 668.168 M217.654 691.785 C 222.996 695.978,222.391 705.222,216.520 709.120 C 211.458 712.481,209.826 707.842,212.082 696.506 C 213.553 689.109,213.886 688.827,217.654 691.785 M258.162 709.385 C 257.299 717.715,255.634 723.216,254.332 722.038 C 250.992 719.016,251.603 711.343,255.452 707.964 C 257.954 705.768,258.507 706.058,258.162 709.385 M208.279 733.184 C 214.250 737.103,209.172 753.005,201.932 753.060 C 198.451 753.087,198.107 751.387,200.212 744.581 C 200.706 742.983,201.111 741.374,201.112 741.006 C 201.124 735.226,204.979 731.019,208.279 733.184 M252.424 736.762 C 252.497 736.826,252.044 738.762,251.416 741.064 C 247.581 755.136,247.932 754.472,245.617 752.019 C 242.460 748.671,242.288 742.831,245.231 738.930 C 246.851 736.782,250.999 735.532,252.424 736.762 M217.228 764.008 C 211.734 767.705,205.544 774.292,203.737 778.365 C 199.726 787.406,204.389 798.760,211.360 796.924 C 223.937 793.612,231.250 782.654,228.576 771.126 C 226.674 762.923,222.619 760.380,217.228 764.008 M217.835 777.269 C 222.521 779.404,219.564 791.015,214.053 792.117 C 209.398 793.048,207.442 787.677,210.302 781.818 C 212.324 777.676,215.078 776.013,217.835 777.269 M182.965 799.593 C 188.099 803.630,184.586 814.749,178.177 814.749 C 174.337 814.749,175.202 804.393,179.423 799.838 C 180.742 798.415,181.410 798.369,182.965 799.593 M224.789 814.719 C 226.309 817.560,223.201 823.063,219.561 823.977 C 216.410 824.768,216.453 818.794,219.623 815.432 C 221.387 813.562,223.978 813.204,224.789 814.719 M174.477 832.250 C 174.988 833.712,173.398 837.242,170.930 840.125 C 168.442 843.032,166.704 842.516,166.704 838.870 C 166.704 833.866,173.130 828.394,174.477 832.250 M218.991 838.324 C 218.988 839.784,216.721 846.568,215.910 847.545 C 213.921 849.942,210.873 842.949,212.520 839.766 C 213.927 837.044,218.997 835.914,218.991 838.324 M320.223 844.746 C 328.159 846.408,340.473 852.216,344.496 856.196 C 348.686 860.340,350.766 866.748,350.256 873.939 C 349.849 879.678,349.842 879.686,345.662 879.761 C 342.805 879.812,341.673 880.052,339.788 881.005 C 336.481 882.678,336.507 881.862,339.875 878.292 C 343.303 874.658,343.331 874.569,341.018 874.705 C 338.798 874.836,338.750 874.782,338.470 871.883 C 337.660 863.463,323.753 857.437,317.718 862.890 C 316.148 864.308,315.084 864.518,315.084 863.409 C 315.084 862.272,312.519 857.904,311.143 856.695 C 309.030 854.840,308.451 855.587,309.835 858.381 C 314.149 867.092,315.774 875.512,315.420 887.318 C 315.116 897.466,313.727 901.317,313.137 893.647 C 312.299 882.737,308.269 869.758,304.410 865.536 C 301.380 862.221,296.394 860.755,296.885 863.324 C 297.227 865.112,296.943 865.511,293.439 868.147 C 285.294 874.278,279.882 884.902,278.883 896.720 C 278.475 901.558,278.452 901.627,276.013 905.658 C 270.668 914.489,267.594 917.199,262.468 917.598 C 253.763 918.275,246.312 925.004,242.851 935.315 C 241.682 938.795,241.768 941.688,242.942 938.401 C 246.698 927.883,255.912 922.918,265.698 926.139 C 270.735 927.797,271.646 927.890,278.537 927.447 C 285.408 927.006,285.562 926.939,287.246 923.603 C 291.064 916.043,292.205 915.856,292.190 922.793 C 292.168 932.304,295.434 940.095,300.457 942.517 C 303.073 943.778,316.462 946.714,325.140 947.928 C 336.286 949.488,339.181 949.762,341.650 949.492 C 346.819 948.925,351.394 945.945,351.992 942.754 C 352.641 939.294,355.250 943.396,355.286 947.933 C 355.326 952.918,353.728 955.133,347.379 958.892 C 336.754 965.183,334.302 967.576,334.302 971.655 C 334.302 975.198,333.518 976.466,330.347 978.053 C 325.354 980.552,319.202 982.215,313.408 982.631 C 308.951 982.951,308.370 983.355,310.867 984.398 L 312.460 985.064 310.085 987.807 C 303.625 995.266,303.194 995.467,294.078 995.258 C 288.324 995.126,290.379 996.563,297.430 997.602 C 301.844 998.252,302.027 998.405,301.035 1000.604 C 299.926 1003.065,298.794 1003.432,291.495 1003.694 C 282.958 1004.000,285.158 1006.480,293.967 1006.480 C 297.431 1006.480,297.830 1007.082,296.323 1010.036 C 295.028 1012.575,292.731 1013.155,282.271 1013.582 C 271.541 1014.021,274.239 1015.736,286.381 1016.195 C 289.890 1016.328,292.863 1016.601,292.987 1016.801 C 293.278 1017.273,290.780 1022.793,290.078 1023.226 C 289.560 1023.547,273.475 1023.695,272.235 1023.391 C 271.897 1023.308,271.543 1023.447,271.449 1023.699 C 271.143 1024.517,278.293 1026.245,284.386 1026.826 C 288.012 1027.172,288.343 1027.638,286.922 1030.402 C 285.429 1033.305,284.552 1033.481,273.198 1033.167 C 267.962 1033.022,263.687 1033.077,263.687 1033.289 C 263.687 1033.721,271.962 1035.666,277.095 1036.439 C 282.113 1037.195,282.458 1037.289,282.456 1037.886 C 282.448 1039.941,279.805 1041.340,275.843 1041.384 C 264.624 1041.509,256.222 1040.426,254.101 1038.582 C 253.245 1037.837,251.444 1038.132,252.090 1038.910 C 254.266 1041.533,266.274 1044.646,275.196 1044.900 C 276.909 1044.949,273.431 1048.926,270.219 1050.590 C 267.651 1051.921,255.797 1049.783,249.265 1046.811 C 245.924 1045.290,244.488 1045.143,245.837 1046.459 C 247.719 1048.296,258.299 1052.961,260.582 1052.961 C 261.001 1052.961,261.606 1053.278,261.928 1053.665 C 264.764 1057.083,248.562 1054.183,240.536 1049.836 C 239.114 1049.066,237.873 1048.652,237.650 1048.875 C 237.081 1049.444,241.538 1053.179,244.803 1054.868 C 248.986 1057.033,248.626 1057.701,243.240 1057.774 C 235.730 1057.874,233.459 1057.005,228.468 1052.119 C 224.651 1048.383,223.521 1049.312,226.652 1053.612 C 228.373 1055.976,227.662 1056.326,223.406 1055.210 C 196.625 1048.191,174.126 1023.521,163.883 989.944 C 161.095 980.803,161.164 979.698,164.303 983.235 C 166.271 985.451,169.014 988.209,172.737 991.715 C 176.973 995.704,187.374 1002.286,194.575 1005.537 C 196.572 1006.438,196.834 1006.462,197.800 1005.829 C 199.156 1004.940,199.042 1004.915,200.851 1006.503 C 202.698 1008.125,205.445 1008.474,206.675 1007.243 C 207.727 1006.191,208.804 1006.285,211.429 1007.657 C 214.406 1009.214,217.419 1008.959,219.700 1006.956 C 221.272 1005.576,222.518 1005.586,224.214 1006.994 C 225.141 1007.763,227.883 1006.612,228.208 1005.317 C 228.628 1003.645,229.841 1003.211,231.662 1004.079 C 234.132 1005.257,235.215 1004.772,238.385 1001.067 C 238.900 1000.465,239.714 1000.219,241.229 1000.209 C 243.842 1000.192,244.954 999.406,245.114 997.465 C 245.181 996.647,245.264 995.801,245.299 995.585 C 245.334 995.370,246.133 995.316,247.075 995.467 C 249.491 995.853,250.494 995.021,250.401 992.707 C 250.319 990.650,250.740 990.179,253.028 989.767 C 255.660 989.293,256.075 988.211,254.967 984.713 C 254.705 983.885,254.859 983.685,255.931 983.457 C 258.015 983.016,258.540 982.557,258.689 981.047 C 258.875 979.177,259.438 979.019,262.799 979.890 C 266.510 980.851,267.504 980.103,264.325 978.740 C 255.777 975.075,252.527 972.949,247.698 967.865 C 230.290 949.539,234.699 921.398,257.011 908.421 C 268.535 901.719,269.723 900.273,271.736 890.503 C 274.278 878.162,281.461 864.013,289.617 855.279 C 298.586 845.675,308.449 842.281,320.223 844.746 M187.026 858.266 C 177.479 861.576,172.974 866.779,172.965 874.508 C 172.948 888.883,186.949 895.542,194.405 884.705 C 199.493 877.310,199.669 862.938,194.731 858.110 C 193.025 856.443,192.240 856.459,187.026 858.266 M189.598 868.363 C 193.101 871.118,191.284 880.341,186.686 883.144 C 182.442 885.732,179.536 880.753,181.687 874.581 C 183.852 868.370,186.730 866.107,189.598 868.363 M268.077 888.427 C 268.269 889.729,265.681 897.439,264.429 899.296 C 262.869 901.612,261.041 902.539,255.920 903.613 C 250.293 904.794,250.279 904.789,250.279 901.632 C 250.279 896.665,253.804 892.830,260.301 890.726 C 261.266 890.414,263.176 889.482,264.547 888.656 C 267.291 887.001,267.862 886.964,268.077 888.427 M158.036 903.799 C 164.573 908.196,164.965 918.436,158.597 918.436 C 154.101 918.436,153.083 916.584,153.508 909.183 C 153.956 901.388,154.135 901.175,158.036 903.799 M201.792 907.882 C 201.610 909.139,201.334 911.173,201.178 912.402 C 200.798 915.391,199.432 915.579,198.463 912.777 C 197.701 910.571,198.324 907.995,200.080 906.102 C 201.579 904.484,202.190 905.119,201.792 907.882 M199.680 935.983 C 199.806 940.764,199.803 940.782,198.752 940.782 C 195.257 940.782,194.129 933.796,197.268 931.592 C 199.219 930.222,199.543 930.812,199.680 935.983 M156.898 933.946 C 160.196 936.720,160.442 942.258,157.389 944.978 C 156.010 946.206,155.322 945.383,154.732 941.793 C 153.223 932.627,153.620 931.188,156.898 933.946 M181.064 942.723 C 177.254 947.314,179.372 961.330,184.718 966.910 L 186.752 969.032 188.500 968.049 C 193.145 965.438,192.750 961.076,187.061 952.184 C 185.069 949.069,183.240 945.461,183.240 944.645 C 183.240 943.316,181.701 941.956,181.064 942.723 M292.291 959.737 C 292.291 960.327,294.457 961.578,297.345 962.658 C 302.409 964.550,290.894 964.310,285.476 962.411 C 280.184 960.556,280.287 960.573,281.314 961.735 C 285.168 966.097,299.848 969.055,302.949 966.095 L 304.289 964.815 309.779 965.369 C 319.905 966.391,330.776 964.226,333.043 960.737 C 333.600 959.879,332.930 959.553,331.932 960.195 C 326.203 963.883,308.584 963.897,296.312 960.223 C 291.914 958.907,292.291 958.952,292.291 959.737 M270.183 964.891 C 269.487 966.017,277.459 970.169,282.608 971.363 C 287.470 972.491,292.845 972.254,293.369 970.889 C 293.677 970.088,293.550 970.054,287.821 969.404 C 282.027 968.748,277.290 967.482,272.091 965.202 C 271.145 964.787,270.330 964.654,270.183 964.891 M265.134 969.944 C 265.899 972.307,276.825 976.580,282.290 976.652 C 290.959 976.768,291.458 974.690,282.905 974.094 C 277.778 973.736,272.562 972.406,267.826 970.249 C 265.626 969.246,264.881 969.162,265.134 969.944 M257.084 971.285 C 258.153 972.922,262.746 976.421,265.665 977.822 C 271.289 980.521,281.261 982.316,281.867 980.737 C 282.226 979.801,281.481 979.381,278.837 979.031 C 273.172 978.279,264.057 974.783,259.361 971.561 C 257.056 969.980,256.161 969.871,257.084 971.285 M170.522 975.009 C 174.798 976.796,181.918 988.603,178.720 988.603 C 177.166 988.603,166.704 976.507,166.704 974.711 C 166.704 974.076,168.652 974.228,170.522 975.009 M210.640 980.515 C 212.513 983.982,212.633 984.581,211.459 984.581 C 209.326 984.581,206.624 980.143,207.430 977.964 C 207.978 976.483,208.827 977.158,210.640 980.515 " stroke="none" fill="#0a0a0a" fill-rule="evenodd"></path></g></svg>